<svg xmlns="http://www.w3.org/2000/svg" viewBox="0 0 400 400">
  <rect width="400" height="400" fill="#1a1a1a"/>
  <!-- document shape -->
  <rect x="90" y="50" width="220" height="260" rx="6" fill="#f0ede6" />
  <!-- fold corner -->
  <polygon points="270,50 310,50 310,90 270,90" fill="#1a1a1a"/>
  <polygon points="270,50 310,90 270,90" fill="#c9c4bc"/>
  <!-- text lines -->
  <rect x="110" y="80" width="140" height="7" rx="3" fill="#333"/>
  <rect x="110" y="98" width="160" height="4" rx="2" fill="#aaa"/>
  <rect x="110" y="110" width="155" height="4" rx="2" fill="#aaa"/>
  <rect x="110" y="122" width="150" height="4" rx="2" fill="#aaa"/>
  <rect x="110" y="140" width="160" height="4" rx="2" fill="#aaa"/>
  <rect x="110" y="152" width="145" height="4" rx="2" fill="#aaa"/>
  <rect x="110" y="164" width="158" height="4" rx="2" fill="#aaa"/>
  <rect x="110" y="180" width="160" height="4" rx="2" fill="#aaa"/>
  <rect x="110" y="192" width="130" height="4" rx="2" fill="#aaa"/>
  <rect x="110" y="208" width="155" height="4" rx="2" fill="#aaa"/>
  <rect x="110" y="220" width="148" height="4" rx="2" fill="#aaa"/>
  <!-- AGREE button -->
  <rect x="120" y="258" width="160" height="34" rx="5" fill="#e63333"/>
  <text x="200" y="281" font-family="system-ui, -apple-system, sans-serif" font-weight="700" font-size="14" fill="#fff" text-anchor="middle">I AGREE</text>
  <!-- bottom label -->
  <text x="200" y="360" font-family="system-ui, -apple-system, sans-serif" font-weight="700" font-size="18" fill="#f0ede6" text-anchor="middle">TERMS OF SERVICE</text>
  <text x="200" y="382" font-family="system-ui, -apple-system, sans-serif" font-weight="400" font-size="12" fill="rgba(240,237,230,0.6)" text-anchor="middle">An Art Game</text>
</svg>
